<mxfile host="Electron" agent="Mozilla/5.0 (Windows NT 10.0; Win64; x64) AppleWebKit/537.36 (KHTML, like Gecko) draw.io/28.0.6 Chrome/138.0.7204.100 Electron/37.2.3 Safari/537.36" version="28.0.6">
  <diagram name="Page-1" id="B3In4STX7LjKbYzg5oC0">
    <mxGraphModel dx="1426" dy="841" grid="1" gridSize="10" guides="1" tooltips="1" connect="1" arrows="1" fold="1" page="1" pageScale="1" pageWidth="827" pageHeight="1169" math="0" shadow="0">
      <root>
        <mxCell id="0" />
        <mxCell id="1" parent="0" />
        <mxCell id="iGN0DKskUoLKEgerfL4y-52" value="" style="rounded=0;whiteSpace=wrap;html=1;strokeColor=none;" parent="1" vertex="1">
          <mxGeometry x="100" y="30" width="870" height="500" as="geometry" />
        </mxCell>
        <mxCell id="iGN0DKskUoLKEgerfL4y-51" value="" style="rounded=0;whiteSpace=wrap;html=1;fillColor=#f5f5f5;fontColor=#333333;strokeColor=#666666;" parent="1" vertex="1">
          <mxGeometry x="730" y="320" width="230" height="200" as="geometry" />
        </mxCell>
        <mxCell id="iGN0DKskUoLKEgerfL4y-50" value="" style="rounded=0;whiteSpace=wrap;html=1;fillColor=#f5f5f5;fontColor=#333333;strokeColor=#666666;" parent="1" vertex="1">
          <mxGeometry x="120" y="320" width="510" height="200" as="geometry" />
        </mxCell>
        <mxCell id="iGN0DKskUoLKEgerfL4y-49" value="" style="rounded=0;whiteSpace=wrap;html=1;fillColor=#f5f5f5;fontColor=#333333;strokeColor=#666666;" parent="1" vertex="1">
          <mxGeometry x="120" y="40" width="440" height="200" as="geometry" />
        </mxCell>
        <mxCell id="iGN0DKskUoLKEgerfL4y-10" value="Lightship" style="shape=umlFrame;whiteSpace=wrap;html=1;pointerEvents=0;" parent="1" vertex="1">
          <mxGeometry x="120" y="40" width="440" height="200" as="geometry" />
        </mxCell>
        <mxCell id="iGN0DKskUoLKEgerfL4y-15" value="" style="group" parent="1" vertex="1" connectable="0">
          <mxGeometry x="230" y="80" width="200" height="120" as="geometry" />
        </mxCell>
        <mxCell id="iGN0DKskUoLKEgerfL4y-11" value="Room" style="html=1;whiteSpace=wrap;fillColor=#dae8fc;strokeColor=#6c8ebf;verticalAlign=top;fontSize=18;" parent="iGN0DKskUoLKEgerfL4y-15" vertex="1">
          <mxGeometry width="200" height="120" as="geometry" />
        </mxCell>
        <mxCell id="iGN0DKskUoLKEgerfL4y-12" value="+ ID" style="text;strokeColor=none;fillColor=none;align=left;verticalAlign=top;spacingLeft=4;spacingRight=4;overflow=hidden;rotatable=0;points=[[0,0.5],[1,0.5]];portConstraint=eastwest;whiteSpace=wrap;html=1;fontSize=16;" parent="iGN0DKskUoLKEgerfL4y-15" vertex="1">
          <mxGeometry x="10" y="32" width="100" height="26" as="geometry" />
        </mxCell>
        <mxCell id="iGN0DKskUoLKEgerfL4y-13" value="+ Image localization" style="text;strokeColor=none;fillColor=none;align=left;verticalAlign=top;spacingLeft=4;spacingRight=4;overflow=hidden;rotatable=0;points=[[0,0.5],[1,0.5]];portConstraint=eastwest;whiteSpace=wrap;html=1;fontSize=16;" parent="iGN0DKskUoLKEgerfL4y-15" vertex="1">
          <mxGeometry x="10" y="58" width="170" height="26" as="geometry" />
        </mxCell>
        <mxCell id="iGN0DKskUoLKEgerfL4y-14" value="+ Max. Users" style="text;strokeColor=none;fillColor=none;align=left;verticalAlign=top;spacingLeft=4;spacingRight=4;overflow=hidden;rotatable=0;points=[[0,0.5],[1,0.5]];portConstraint=eastwest;whiteSpace=wrap;html=1;fontSize=16;" parent="iGN0DKskUoLKEgerfL4y-15" vertex="1">
          <mxGeometry x="10" y="84" width="110" height="26" as="geometry" />
        </mxCell>
        <mxCell id="iGN0DKskUoLKEgerfL4y-16" value="Host" style="shape=umlFrame;whiteSpace=wrap;html=1;pointerEvents=0;" parent="1" vertex="1">
          <mxGeometry x="120" y="320" width="510" height="200" as="geometry" />
        </mxCell>
        <mxCell id="iGN0DKskUoLKEgerfL4y-20" value="" style="group" parent="1" vertex="1" connectable="0">
          <mxGeometry x="190" y="350" width="160" height="150" as="geometry" />
        </mxCell>
        <mxCell id="iGN0DKskUoLKEgerfL4y-17" value="Configuration&lt;div&gt;Manager&lt;/div&gt;" style="html=1;whiteSpace=wrap;fillColor=#d5e8d4;strokeColor=#82b366;verticalAlign=top;fontSize=18;" parent="iGN0DKskUoLKEgerfL4y-20" vertex="1">
          <mxGeometry width="160" height="150" as="geometry" />
        </mxCell>
        <mxCell id="iGN0DKskUoLKEgerfL4y-18" value="+ Room ID" style="text;strokeColor=none;fillColor=none;align=left;verticalAlign=top;spacingLeft=4;spacingRight=4;overflow=hidden;rotatable=0;points=[[0,0.5],[1,0.5]];portConstraint=eastwest;whiteSpace=wrap;html=1;fontSize=16;" parent="iGN0DKskUoLKEgerfL4y-20" vertex="1">
          <mxGeometry x="7" y="62" width="100" height="26" as="geometry" />
        </mxCell>
        <mxCell id="iGN0DKskUoLKEgerfL4y-19" value="+ Goals List" style="text;strokeColor=none;fillColor=none;align=left;verticalAlign=top;spacingLeft=4;spacingRight=4;overflow=hidden;rotatable=0;points=[[0,0.5],[1,0.5]];portConstraint=eastwest;whiteSpace=wrap;html=1;fontSize=16;" parent="iGN0DKskUoLKEgerfL4y-20" vertex="1">
          <mxGeometry x="7" y="88" width="100" height="26" as="geometry" />
        </mxCell>
        <mxCell id="iGN0DKskUoLKEgerfL4y-21" style="edgeStyle=orthogonalEdgeStyle;rounded=0;orthogonalLoop=1;jettySize=auto;html=1;exitX=0.5;exitY=0;exitDx=0;exitDy=0;entryX=0.2;entryY=1;entryDx=0;entryDy=0;entryPerimeter=0;" parent="1" source="iGN0DKskUoLKEgerfL4y-17" target="iGN0DKskUoLKEgerfL4y-11" edge="1">
          <mxGeometry relative="1" as="geometry" />
        </mxCell>
        <mxCell id="iGN0DKskUoLKEgerfL4y-22" value="Create&lt;div&gt;Room&lt;/div&gt;" style="edgeLabel;html=1;align=center;verticalAlign=middle;resizable=0;points=[];fontSize=16;labelBackgroundColor=none;" parent="iGN0DKskUoLKEgerfL4y-21" vertex="1" connectable="0">
          <mxGeometry x="0.1467" y="-1" relative="1" as="geometry">
            <mxPoint x="-31" y="16" as="offset" />
          </mxGeometry>
        </mxCell>
        <mxCell id="iGN0DKskUoLKEgerfL4y-28" style="edgeStyle=orthogonalEdgeStyle;rounded=0;orthogonalLoop=1;jettySize=auto;html=1;exitX=0.25;exitY=0;exitDx=0;exitDy=0;entryX=0.805;entryY=0.992;entryDx=0;entryDy=0;entryPerimeter=0;" parent="1" source="zDbVTGUOuvj46eKGL-ME-1" target="iGN0DKskUoLKEgerfL4y-11" edge="1">
          <mxGeometry relative="1" as="geometry">
            <mxPoint x="470.96000000000004" y="390" as="sourcePoint" />
          </mxGeometry>
        </mxCell>
        <mxCell id="iGN0DKskUoLKEgerfL4y-29" value="Start / End&lt;div&gt;Room&lt;/div&gt;" style="edgeLabel;html=1;align=center;verticalAlign=middle;resizable=0;points=[];fontSize=16;labelBackgroundColor=none;" parent="iGN0DKskUoLKEgerfL4y-28" vertex="1" connectable="0">
          <mxGeometry x="0.0842" y="1" relative="1" as="geometry">
            <mxPoint x="21" y="-26" as="offset" />
          </mxGeometry>
        </mxCell>
        <mxCell id="iGN0DKskUoLKEgerfL4y-30" value="Client" style="shape=umlFrame;whiteSpace=wrap;html=1;pointerEvents=0;" parent="1" vertex="1">
          <mxGeometry x="730" y="320" width="230" height="200" as="geometry" />
        </mxCell>
        <mxCell id="iGN0DKskUoLKEgerfL4y-39" style="edgeStyle=orthogonalEdgeStyle;rounded=0;orthogonalLoop=1;jettySize=auto;html=1;exitX=0.5;exitY=0;exitDx=0;exitDy=0;entryX=1;entryY=0.442;entryDx=0;entryDy=0;entryPerimeter=0;" parent="1" source="zDbVTGUOuvj46eKGL-ME-1" target="iGN0DKskUoLKEgerfL4y-11" edge="1">
          <mxGeometry relative="1" as="geometry">
            <mxPoint x="530" y="390" as="sourcePoint" />
          </mxGeometry>
        </mxCell>
        <mxCell id="iGN0DKskUoLKEgerfL4y-40" value="Connect a&lt;div&gt;Client&lt;/div&gt;" style="edgeLabel;html=1;align=center;verticalAlign=middle;resizable=0;points=[];fontSize=16;labelBackgroundColor=none;" parent="iGN0DKskUoLKEgerfL4y-39" vertex="1" connectable="0">
          <mxGeometry x="-0.2177" relative="1" as="geometry">
            <mxPoint x="-35" y="-143" as="offset" />
          </mxGeometry>
        </mxCell>
        <mxCell id="iGN0DKskUoLKEgerfL4y-41" style="edgeStyle=orthogonalEdgeStyle;rounded=0;orthogonalLoop=1;jettySize=auto;html=1;exitX=1;exitY=0.5;exitDx=0;exitDy=0;entryX=-0.006;entryY=0.375;entryDx=0;entryDy=0;entryPerimeter=0;" parent="1" source="iGN0DKskUoLKEgerfL4y-17" target="zDbVTGUOuvj46eKGL-ME-1" edge="1">
          <mxGeometry relative="1" as="geometry">
            <mxPoint x="450" y="425" as="targetPoint" />
          </mxGeometry>
        </mxCell>
        <mxCell id="iGN0DKskUoLKEgerfL4y-42" value="Room ID" style="edgeLabel;html=1;align=center;verticalAlign=middle;resizable=0;points=[];fontSize=16;labelBackgroundColor=none;" parent="iGN0DKskUoLKEgerfL4y-41" vertex="1" connectable="0">
          <mxGeometry x="-0.04" y="-2" relative="1" as="geometry">
            <mxPoint y="-17" as="offset" />
          </mxGeometry>
        </mxCell>
        <mxCell id="iGN0DKskUoLKEgerfL4y-45" style="edgeStyle=orthogonalEdgeStyle;rounded=0;orthogonalLoop=1;jettySize=auto;html=1;exitX=1;exitY=0.25;exitDx=0;exitDy=0;entryX=0;entryY=0.25;entryDx=0;entryDy=0;" parent="1" source="zDbVTGUOuvj46eKGL-ME-1" target="zDbVTGUOuvj46eKGL-ME-3" edge="1">
          <mxGeometry relative="1" as="geometry">
            <mxPoint x="610" y="407.5" as="sourcePoint" />
            <mxPoint x="770" y="407.5" as="targetPoint" />
          </mxGeometry>
        </mxCell>
        <mxCell id="iGN0DKskUoLKEgerfL4y-46" value="Available&lt;div&gt;Rooms&lt;/div&gt;" style="edgeLabel;html=1;align=center;verticalAlign=middle;resizable=0;points=[];fontSize=16;labelBackgroundColor=none;" parent="iGN0DKskUoLKEgerfL4y-45" vertex="1" connectable="0">
          <mxGeometry x="-0.2" relative="1" as="geometry">
            <mxPoint x="6" y="-27" as="offset" />
          </mxGeometry>
        </mxCell>
        <mxCell id="iGN0DKskUoLKEgerfL4y-47" style="edgeStyle=orthogonalEdgeStyle;rounded=0;orthogonalLoop=1;jettySize=auto;html=1;exitX=0;exitY=0.75;exitDx=0;exitDy=0;entryX=1;entryY=0.75;entryDx=0;entryDy=0;" parent="1" source="zDbVTGUOuvj46eKGL-ME-3" target="zDbVTGUOuvj46eKGL-ME-1" edge="1">
          <mxGeometry relative="1" as="geometry">
            <mxPoint x="770" y="435" as="sourcePoint" />
            <mxPoint x="609.04" y="435.01" as="targetPoint" />
          </mxGeometry>
        </mxCell>
        <mxCell id="iGN0DKskUoLKEgerfL4y-48" value="Connect to&lt;div&gt;Room&lt;/div&gt;" style="edgeLabel;html=1;align=center;verticalAlign=middle;resizable=0;points=[];fontSize=16;labelBackgroundColor=none;" parent="iGN0DKskUoLKEgerfL4y-47" vertex="1" connectable="0">
          <mxGeometry x="-0.0308" y="1" relative="1" as="geometry">
            <mxPoint x="-7" y="24" as="offset" />
          </mxGeometry>
        </mxCell>
        <mxCell id="zDbVTGUOuvj46eKGL-ME-1" value="Session Manager" style="html=1;dropTarget=0;whiteSpace=wrap;fontSize=18;fillColor=#fff2cc;strokeColor=#d6b656;" vertex="1" parent="1">
          <mxGeometry x="440" y="395" width="170" height="80" as="geometry" />
        </mxCell>
        <mxCell id="zDbVTGUOuvj46eKGL-ME-2" value="" style="shape=module;jettyWidth=8;jettyHeight=4;" vertex="1" parent="zDbVTGUOuvj46eKGL-ME-1">
          <mxGeometry x="1" width="20" height="20" relative="1" as="geometry">
            <mxPoint x="-27" y="7" as="offset" />
          </mxGeometry>
        </mxCell>
        <mxCell id="zDbVTGUOuvj46eKGL-ME-3" value="Session Manager" style="html=1;dropTarget=0;whiteSpace=wrap;fontSize=18;fillColor=#fff2cc;strokeColor=#d6b656;" vertex="1" parent="1">
          <mxGeometry x="760" y="395" width="170" height="80" as="geometry" />
        </mxCell>
        <mxCell id="zDbVTGUOuvj46eKGL-ME-4" value="" style="shape=module;jettyWidth=8;jettyHeight=4;" vertex="1" parent="zDbVTGUOuvj46eKGL-ME-3">
          <mxGeometry x="1" width="20" height="20" relative="1" as="geometry">
            <mxPoint x="-27" y="7" as="offset" />
          </mxGeometry>
        </mxCell>
      </root>
    </mxGraphModel>
  </diagram>
</mxfile>
